<?xml version="1.0" encoding="utf-8"?>
<!-- Generator: Adobe Illustrator 24.0.1, SVG Export Plug-In . SVG Version: 6.00 Build 0)  -->
<svg version="1.1" id="Capa_1" xmlns="http://www.w3.org/2000/svg" xmlns:xlink="http://www.w3.org/1999/xlink" x="0px" y="0px"
	 viewBox="0 0 46 46" style="enable-background:new 0 0 46 46;" xml:space="preserve">
<style type="text/css">
	.st0{fill:#5BD6C9;}
</style>
<path class="st0" d="M23,0C10.3,0,0,10.3,0,23c0,12.7,10.3,23,23,23s23-10.3,23-23C46,10.3,35.7,0,23,0z M35.3,18.1L20.9,32.5
	c-0.6,0.6-1.4,1-2.3,1c-0.9,0-1.7-0.3-2.3-1l-7.1-7.1c-1.3-1.3-1.3-3.3,0-4.6c1.3-1.3,3.3-1.3,4.6,0L18,25c0.3,0.3,0.8,0.3,1.2,0
	l11.5-11.5c1.3-1.3,3.3-1.3,4.6,0C36.5,14.8,36.5,16.8,35.3,18.1z"/>
</svg>
