<svg xmlns="http://www.w3.org/2000/svg" viewBox="0 0 20 20"><defs><style>.cls-1{fill:#f4f5ec;}</style></defs><title>BurgerMenu</title><g id="Layer_2" data-name="Layer 2"><g id="Layer_1-2" data-name="Layer 1"><path class="cls-1" d="M19.09,9.29a3.31,3.31,0,0,1-1.64-.78,1.05,1.05,0,0,0-1.56,0,3.58,3.58,0,0,1-2.56.89,3.68,3.68,0,0,1-2.55-.87,1,1,0,0,0-1.55,0,3.64,3.64,0,0,1-2.56.89,3.66,3.66,0,0,1-2.55-.87,1,1,0,0,0-1.56,0,3.3,3.3,0,0,1-1.65.79A1.22,1.22,0,0,0,0,10.72a1.12,1.12,0,0,0,1.29,1,5.75,5.75,0,0,0,2-.82,6,6,0,0,0,3.34.95A6,6,0,0,0,10,10.89a6,6,0,0,0,3.33.95,6,6,0,0,0,3.34-.95,5.75,5.75,0,0,0,2,.82,1.11,1.11,0,0,0,1.29-1A1.22,1.22,0,0,0,19.09,9.29Zm0,8.16a3.31,3.31,0,0,1-1.64-.78,1.05,1.05,0,0,0-1.56,0,3.58,3.58,0,0,1-2.56.89,3.64,3.64,0,0,1-2.54-.87,1.05,1.05,0,0,0-1.56,0,3.64,3.64,0,0,1-2.56.89,3.66,3.66,0,0,1-2.55-.87,1,1,0,0,0-1.56,0,3.3,3.3,0,0,1-1.65.79A1.22,1.22,0,0,0,0,18.88a1.12,1.12,0,0,0,1.29,1,5.75,5.75,0,0,0,2-.82A6,6,0,0,0,6.67,20,6,6,0,0,0,10,19.05a6,6,0,0,0,3.34.95,5.78,5.78,0,0,0,3.3-.95,5.75,5.75,0,0,0,2,.82,1.13,1.13,0,0,0,1.32-1A1.22,1.22,0,0,0,19.09,17.45ZM1.31,3.55a5.75,5.75,0,0,0,2-.81,6.06,6.06,0,0,0,3.34.95A6.05,6.05,0,0,0,10,2.74a6.06,6.06,0,0,0,3.33.94,6.07,6.07,0,0,0,3.34-.94,5.75,5.75,0,0,0,2,.81,1.11,1.11,0,0,0,1.29-1,1.24,1.24,0,0,0-.89-1.44A3.31,3.31,0,0,1,17.45.35a1.05,1.05,0,0,0-1.56,0,3.65,3.65,0,0,1-2.56.88A3.64,3.64,0,0,1,10.79.35a1.05,1.05,0,0,0-1.56,0,3.71,3.71,0,0,1-2.56.88A3.6,3.6,0,0,1,4.12.35a1.05,1.05,0,0,0-1.56,0,3.26,3.26,0,0,1-1.65.8A1.22,1.22,0,0,0,0,2.57,1.12,1.12,0,0,0,1.31,3.55Z"/></g></g></svg>