<svg xmlns="http://www.w3.org/2000/svg" viewBox="0 0 139 38.19" preserveAspectRatio="none"><defs><style>.cls-1{fill:#0c1827;}</style></defs><title>Fondito-AzulMarino</title><g id="Layer_2" data-name="Layer 2"><g id="Layer_1-2" data-name="Layer 1"><path class="cls-1" d="M124.68,38.06c-4.3.32-8.82-.05-12.31-.1-16.8-.25-33.06-4.26-49.87-4.06-17,.21-33.9,2.89-50.92,2.78-2.83,0-5.93-.21-8-2.12C1.23,32.44.78,25.93.21,22.87a21.18,21.18,0,0,1-.13-5l.33-6.44A6.4,6.4,0,0,1,1,8.58,5.76,5.76,0,0,1,2.39,7.12C8.13,2.33,14.53-.4,22,.05c4.3.26,8.57.55,12.86.82C43.4,1.4,51.81,3,60.32,3.76c7.63.68,15.34.4,23,.55l21.05.43c9.42.19,19,.41,27.92,3.53A8.41,8.41,0,0,1,135.46,10c1.26,1.24,1.71,3.06,2.11,4.78.8,3.53,1.61,7.11,1.39,10.72s-1.61,7.32-4.47,9.52C131.92,37,128.39,37.77,124.68,38.06Z"/></g></g></svg>