<svg xmlns="http://www.w3.org/2000/svg" viewBox="0 0 25 25" ><defs><style>.cls-1{fill:#f8f8f3;}</style></defs><title>Layer 2</title><g id="Layer_2" data-name="Layer 2"><g id="Layer_1-2" data-name="Layer 1"><g id="Layer_2-2" data-name="Layer 2"><g id="Layer_1-2-2" data-name="Layer 1-2"><path class="cls-1" d="M24.66,10.53a25.82,25.82,0,0,0-5.21-3.15,19.17,19.17,0,0,0-5.93-1.92,19.57,19.57,0,0,0-7.75.77,11.91,11.91,0,0,0-3.16,1.4A5.52,5.52,0,0,0,.07,10.91a4.68,4.68,0,0,0,1.34,4A7.75,7.75,0,0,0,5.66,17a24,24,0,0,0,4.79.19A25.81,25.81,0,0,0,14,16.91a26.41,26.41,0,0,0,6.68-2.34,21,21,0,0,0,2.22-1.13A16.94,16.94,0,0,0,24.66,12a.8.8,0,0,0,.13-.13.92.92,0,0,0-.12-1.29ZM13.73,14.05a3.33,3.33,0,0,1-2.6.52A2.47,2.47,0,0,1,10,14a7.83,7.83,0,0,1-.83-.9,4.9,4.9,0,0,1-.65-1,3.27,3.27,0,0,1-.29-1.27A2.87,2.87,0,0,1,9.45,8.46,3.37,3.37,0,0,1,12,7.92,3.2,3.2,0,0,1,14.1,9.3a3.29,3.29,0,0,1,1,2.4A3.15,3.15,0,0,1,13.73,14.05ZM8.32,15.47a13.29,13.29,0,0,1-3.11-.56,5.19,5.19,0,0,1-2.48-1.45,2.73,2.73,0,0,1-.57-1.17,3.08,3.08,0,0,1-.05-1.35A3.44,3.44,0,0,1,3.67,9,10,10,0,0,1,6.34,7.85a14.38,14.38,0,0,1,1.45-.31c.3-.06.62-.11.92-.14l-.05,0A5.49,5.49,0,0,0,7.44,8.84a5.78,5.78,0,0,0-.7,1.75,5.12,5.12,0,0,0-.08,1.95,4.29,4.29,0,0,0,.78,1.85,3.72,3.72,0,0,0,1.3,1.1Zm13.41-4.19a.91.91,0,0,1-.19.38,3.38,3.38,0,0,1-.76.75,10.67,10.67,0,0,1-1.85.93A27.52,27.52,0,0,1,14.46,15a5.38,5.38,0,0,0,1.87-5,5,5,0,0,0-.72-1.82l-.19-.21A23.08,23.08,0,0,1,18,8.85a19.37,19.37,0,0,1,1.9.9,6.35,6.35,0,0,1,1.61,1A.61.61,0,0,1,21.73,11.28ZM.47,4.28a.82.82,0,0,1,0-1.21.81.81,0,0,1,1.19-.13A22.89,22.89,0,0,1,3.56,4.27a.63.63,0,0,1,0,1.09c-.29.25-.61.47-.92.71A8.26,8.26,0,0,1,.47,4.28ZM9.05.8A.48.48,0,0,1,9.17.36a1.21,1.21,0,0,1,1.69.21,4.58,4.58,0,0,1,.49,1.29,1.76,1.76,0,0,1,.09.91,1.43,1.43,0,0,1-1.38,1.11c-.33,0-.56-.23-.64-.67s-.17-1-.25-1.56ZM4.42,1.93A.76.76,0,0,1,4.64,1a.81.81,0,0,1,1,0,2.38,2.38,0,0,1,.61.73,5.82,5.82,0,0,1,.84,1.78c.06.26,0,.44-.27.52L6,4.16c-.2.06-.28-.09-.39-.21a6.85,6.85,0,0,1-1-1.49C4.59,2.28,4.49,2.11,4.42,1.93Zm9.36,1.3A15.36,15.36,0,0,0,13.9.88a.83.83,0,0,1,.57-.83.86.86,0,0,1,1.1.53.8.8,0,0,1,0,.15,3.17,3.17,0,0,1-.93,2.89c-.18.18-.39.37-.68.24s-.24-.4-.21-.63Zm3.51.95a1.25,1.25,0,0,1,0-1c.22-.39.45-.78.69-1.15a.56.56,0,0,1,.61-.3c.3.08.34.34.34.58a3.5,3.5,0,0,1-.41,1.9c-.14.23-.29.47-.57.44a1.07,1.07,0,0,1-.7-.5Zm3,1.61A6.14,6.14,0,0,1,21,4.05a.38.38,0,0,1,.68,0,1.51,1.51,0,0,1,0,1.47c-.25.43-.66.5-1.28.23ZM22.91,7a.49.49,0,0,1-.14-.57,2,2,0,0,1,.43-.66c.14-.14.31-.3.56-.18a.54.54,0,0,1,.32.58,1.17,1.17,0,0,1-.69,1A.41.41,0,0,1,22.92,7ZM13,10.21a1.41,1.41,0,0,1-.59,2.27,1.68,1.68,0,0,1-1.85-.37,1.14,1.14,0,0,1-.29-1.4,1.61,1.61,0,0,1,2.08-1A1.73,1.73,0,0,1,13,10.21Zm9.93,6.18a5.89,5.89,0,0,1,.7,4c-.26,1.17-1.18,2.36-2.52,1.84-.63-.25-1-1.5-1.41-1.62-.7-.2-1.45.92-1.7,1.38a5.5,5.5,0,0,1-.52.83,1.63,1.63,0,0,1-2.75.06c-.5-.64-.81-1.53-1.8-1.41s-1,1.28-1.73,1.82c-1.07.82-2.22-.12-2.87-1s-1.54-2-2.52-.79c-.35.43-.47,1.13-1.07,1.33-1.74.59-2-2.58-3.07-3.08-.19-.08-.24-1.09,0-1.11,1.49-.12,1.16,2.18,2.64,2.1C5.37,20.73,5.35,19,6.61,19c1.46.06,1.83,2.09,3.31,2.28s1.34-1.54,2.38-2.05,1.7.11,2.25.88c1.52,2.12,2.5.35,3.49-1.26.49-.81,1.1-1.27,1.88-.55.56.5.69,1.45,1.58,1.49,1.32.07,1.11-1,.89-1.92,0-.22.11-2.22.5-1.53Z"/></g></g></g></g></svg>